# 3ds Max Wavefront OBJ Exporter v0.97b - (c)2007 guruware
# File Created: 21.01.2017 21:22:00

#
# object M_FireWaterHead
#

v  0.5884 159.0773 -34.6430
v  0.5096 176.4013 -30.0017
v  9.1704 174.0803 -29.8546
v  15.5105 167.7393 -29.7469
v  17.8311 159.0773 -29.7075
v  15.5105 150.4153 -29.7469
v  9.1704 144.0743 -29.8546
v  0.5096 141.7533 -30.0017
v  -8.1511 144.0743 -30.1488
v  -14.4912 150.4153 -30.2565
v  -16.8119 159.0773 -30.2959
v  -14.4913 167.7393 -30.2565
v  -8.1512 174.0803 -30.1488
v  0.2942 189.0834 -17.3215
v  15.2951 185.0633 -17.0667
v  26.2765 174.0804 -16.8802
v  30.2959 159.0773 -16.8119
v  26.2765 144.0743 -16.8802
v  15.2951 133.0914 -17.0667
v  0.2942 129.0713 -17.3215
v  -14.7066 133.0913 -17.5763
v  -25.6880 144.0743 -17.7628
v  -29.7075 159.0773 -17.8311
v  -25.6880 174.0803 -17.7628
v  -14.7067 185.0633 -17.5763
v  0.0000 193.7253 0.0000
v  17.3215 189.0834 0.2942
v  30.0017 176.4013 0.5096
v  34.6430 159.0773 0.5884
v  30.0017 141.7534 0.5096
v  17.3215 129.0713 0.2942
v  0.0000 124.4294 0.0000
v  -17.3215 129.0713 -0.2942
v  -30.0017 141.7533 -0.5096
v  -34.6430 159.0773 -0.5884
v  -30.0017 176.4013 -0.5096
v  -17.3215 189.0833 -0.2942
v  -0.2942 189.0834 17.3215
v  14.7066 185.0633 17.5763
v  25.6880 174.0804 17.7628
v  29.7075 159.0773 17.8311
v  25.6880 144.0743 17.7628
v  14.7066 133.0914 17.5763
v  -0.2942 129.0713 17.3215
v  -15.2951 133.0913 17.0667
v  -26.2764 144.0743 16.8802
v  -30.2959 159.0773 16.8119
v  -26.2765 174.0803 16.8802
v  -15.2951 185.0633 17.0667
v  -0.5096 176.4013 30.0017
v  8.1511 174.0804 30.1488
v  14.4912 167.7393 30.2565
v  16.8119 159.0773 30.2959
v  14.4912 150.4153 30.2565
v  8.1511 144.0743 30.1488
v  -0.5096 141.7533 30.0017
v  -9.1703 144.0743 29.8546
v  -15.5105 150.4153 29.7469
v  -17.8311 159.0773 29.7075
v  -15.5105 167.7393 29.7469
v  -9.1704 174.0803 29.8546
v  -0.5884 159.0773 34.6430
# 62 vertices

vn 0.0170 -0.0000 -0.9999
vn 0.0144 0.5309 -0.8473
vn 0.2798 0.4598 -0.8428
vn 0.4741 0.2654 -0.8395
vn 0.5452 0.0000 -0.8383
vn 0.4741 -0.2654 -0.8395
vn 0.2798 -0.4598 -0.8428
vn 0.0144 -0.5309 -0.8473
vn -0.2510 -0.4598 -0.8518
vn -0.4453 -0.2655 -0.8551
vn -0.5164 -0.0000 -0.8563
vn -0.4453 0.2654 -0.8551
vn -0.2510 0.4598 -0.8518
vn 0.0082 0.8760 -0.4823
vn 0.4461 0.7586 -0.4748
vn 0.7667 0.4380 -0.4694
vn 0.8840 0.0000 -0.4674
vn 0.7667 -0.4380 -0.4694
vn 0.4461 -0.7586 -0.4748
vn 0.0082 -0.8760 -0.4823
vn -0.4297 -0.7586 -0.4897
vn -0.7503 -0.4380 -0.4952
vn -0.8677 -0.0000 -0.4971
vn -0.7503 0.4380 -0.4952
vn -0.4297 0.7586 -0.4897
vn -0.0000 1.0000 0.0000
vn 0.4999 0.8660 0.0085
vn 0.8659 0.5000 0.0147
vn 0.9999 0.0000 0.0170
vn 0.8659 -0.5000 0.0147
vn 0.4999 -0.8660 0.0085
vn 0.0000 -1.0000 0.0000
vn -0.4999 -0.8660 -0.0085
vn -0.8659 -0.5000 -0.0147
vn -0.9999 -0.0000 -0.0170
vn -0.8659 0.5000 -0.0147
vn -0.4999 0.8660 -0.0085
vn -0.0082 0.8760 0.4823
vn 0.4297 0.7586 0.4897
vn 0.7503 0.4380 0.4952
vn 0.8677 0.0000 0.4971
vn 0.7503 -0.4380 0.4952
vn 0.4297 -0.7586 0.4897
vn -0.0082 -0.8760 0.4823
vn -0.4461 -0.7586 0.4748
vn -0.7667 -0.4380 0.4694
vn -0.8840 -0.0000 0.4674
vn -0.7667 0.4380 0.4694
vn -0.4461 0.7586 0.4748
vn -0.0144 0.5309 0.8473
vn 0.2510 0.4598 0.8518
vn 0.4453 0.2654 0.8551
vn 0.5164 0.0000 0.8563
vn 0.4453 -0.2654 0.8551
vn 0.2510 -0.4598 0.8518
vn -0.0144 -0.5309 0.8473
vn -0.2798 -0.4598 0.8428
vn -0.4741 -0.2655 0.8395
vn -0.5452 -0.0000 0.8383
vn -0.4741 0.2654 0.8395
vn -0.2798 0.4598 0.8428
vn -0.0170 0.0000 0.9999
# 62 vertex normals

vt 0.9889 0.4946 0.0000
vt 0.9423 0.7151 0.0000
vt 0.8683 0.6382 0.0000
vt 0.8357 0.5719 0.0000
vt 0.8228 0.5122 0.0000
vt 0.8237 0.4526 0.0000
vt 0.8413 0.3869 0.0000
vt 0.8915 0.3123 0.0000
vt 0.0165 0.5496 0.0000
vt 0.0631 0.3291 0.0000
vt 0.1371 0.4060 0.0000
vt 0.1697 0.4723 0.0000
vt 0.1826 0.5320 0.0000
vt 0.1817 0.5915 0.0000
vt 0.1641 0.6573 0.0000
vt 0.1139 0.7319 0.0000
vt 0.7415 0.8597 0.0000
vt 0.7271 0.6889 0.0000
vt 0.7237 0.5923 0.0000
vt 0.7206 0.5179 0.0000
vt 0.7166 0.4453 0.0000
vt 0.7118 0.3559 0.0000
vt 0.7196 0.2049 0.0000
vt 0.2639 0.1845 0.0000
vt 0.2783 0.3553 0.0000
vt 0.2816 0.4519 0.0000
vt 0.2847 0.5263 0.0000
vt 0.2888 0.5988 0.0000
vt 0.2936 0.6883 0.0000
vt 0.2858 0.8393 0.0000
vt 0.5034 0.8040 0.2115
vt 0.6134 0.6649 0.0000
vt 0.6429 0.5859 0.0000
vt 0.6492 0.5214 0.0000
vt 0.6410 0.4582 0.0000
vt 0.6126 0.3831 0.0000
vt 0.5019 0.2402 -0.2115
vt 0.3919 0.3793 0.0000
vt 0.3625 0.4583 0.0000
vt 0.3561 0.5228 0.0000
vt 0.3643 0.5860 0.0000
vt 0.3927 0.6611 0.0000
vt 0.4988 0.6305 0.0000
vt 0.5540 0.6101 0.0000
vt 0.5849 0.5683 0.0000
vt 0.5941 0.5242 0.0000
vt 0.5861 0.4807 0.0000
vt 0.5591 0.4401 0.0000
vt 0.5065 0.4137 0.0000
vt 0.4514 0.4341 0.0000
vt 0.4204 0.4758 0.0000
vt 0.4113 0.5200 0.0000
vt 0.4192 0.5634 0.0000
vt 0.4463 0.6041 0.0000
vt 0.4991 0.5697 0.0000
vt 0.5237 0.5642 0.0000
vt 0.5411 0.5469 0.0000
vt 0.5477 0.5246 0.0000
vt 0.5435 0.5021 0.0000
vt 0.5291 0.4836 0.0000
vt 0.5063 0.4744 0.0000
vt 0.4816 0.4800 0.0000
vt 0.4643 0.4972 0.0000
vt 0.4577 0.5195 0.0000
vt 0.4618 0.5420 0.0000
vt 0.4763 0.5605 0.0000
vt 0.5027 0.5221 0.0000
# 67 texture coords

g M_FireWaterHead
s 1
f 1/1/1 2/2/2 3/3/3 
f 1/1/1 3/3/3 4/4/4 
f 1/1/1 4/4/4 5/5/5 
f 1/1/1 5/5/5 6/6/6 
f 1/1/1 6/6/6 7/7/7 
f 1/1/1 7/7/7 8/8/8 
f 1/9/1 8/10/8 9/11/9 
f 1/9/1 9/11/9 10/12/10 
f 1/9/1 10/12/10 11/13/11 
f 1/9/1 11/13/11 12/14/12 
f 1/9/1 12/14/12 13/15/13 
f 1/9/1 13/15/13 2/16/2 
f 2/2/2 14/17/14 15/18/15 3/3/3 
f 3/3/3 15/18/15 16/19/16 4/4/4 
f 4/4/4 16/19/16 17/20/17 5/5/5 
f 5/5/5 17/20/17 18/21/18 6/6/6 
f 6/6/6 18/21/18 19/22/19 7/7/7 
f 7/7/7 19/22/19 20/23/20 8/8/8 
f 8/10/8 20/24/20 21/25/21 9/11/9 
f 9/11/9 21/25/21 22/26/22 10/12/10 
f 10/12/10 22/26/22 23/27/23 11/13/11 
f 11/13/11 23/27/23 24/28/24 12/14/12 
f 12/14/12 24/28/24 25/29/25 13/15/13 
f 13/15/13 25/29/25 14/30/14 2/16/2 
f 14/17/14 26/31/26 27/32/27 15/18/15 
f 15/18/15 27/32/27 28/33/28 16/19/16 
f 16/19/16 28/33/28 29/34/29 17/20/17 
f 17/20/17 29/34/29 30/35/30 18/21/18 
f 18/21/18 30/35/30 31/36/31 19/22/19 
f 19/22/19 31/36/31 32/37/32 20/23/20 
f 20/24/20 32/37/32 33/38/33 21/25/21 
f 21/25/21 33/38/33 34/39/34 22/26/22 
f 22/26/22 34/39/34 35/40/35 23/27/23 
f 23/27/23 35/40/35 36/41/36 24/28/24 
f 24/28/24 36/41/36 37/42/37 25/29/25 
f 25/29/25 37/42/37 26/31/26 14/30/14 
f 26/31/26 38/43/38 39/44/39 27/32/27 
f 27/32/27 39/44/39 40/45/40 28/33/28 
f 28/33/28 40/45/40 41/46/41 29/34/29 
f 29/34/29 41/46/41 42/47/42 30/35/30 
f 30/35/30 42/47/42 43/48/43 31/36/31 
f 31/36/31 43/48/43 44/49/44 32/37/32 
f 32/37/32 44/49/44 45/50/45 33/38/33 
f 33/38/33 45/50/45 46/51/46 34/39/34 
f 34/39/34 46/51/46 47/52/47 35/40/35 
f 35/40/35 47/52/47 48/53/48 36/41/36 
f 36/41/36 48/53/48 49/54/49 37/42/37 
f 37/42/37 49/54/49 38/43/38 26/31/26 
f 38/43/38 50/55/50 51/56/51 39/44/39 
f 39/44/39 51/56/51 52/57/52 40/45/40 
f 40/45/40 52/57/52 53/58/53 41/46/41 
f 41/46/41 53/58/53 54/59/54 42/47/42 
f 42/47/42 54/59/54 55/60/55 43/48/43 
f 43/48/43 55/60/55 56/61/56 44/49/44 
f 44/49/44 56/61/56 57/62/57 45/50/45 
f 45/50/45 57/62/57 58/63/58 46/51/46 
f 46/51/46 58/63/58 59/64/59 47/52/47 
f 47/52/47 59/64/59 60/65/60 48/53/48 
f 48/53/48 60/65/60 61/66/61 49/54/49 
f 49/54/49 61/66/61 50/55/50 38/43/38 
f 62/67/62 51/56/51 50/55/50 
f 62/67/62 52/57/52 51/56/51 
f 62/67/62 53/58/53 52/57/52 
f 62/67/62 54/59/54 53/58/53 
f 62/67/62 55/60/55 54/59/54 
f 62/67/62 56/61/56 55/60/55 
f 62/67/62 57/62/57 56/61/56 
f 62/67/62 58/63/58 57/62/57 
f 62/67/62 59/64/59 58/63/58 
f 62/67/62 60/65/60 59/64/59 
f 62/67/62 61/66/61 60/65/60 
f 62/67/62 50/55/50 61/66/61 
# 48 polygons - 24 triangles

