# 3ds Max Wavefront OBJ Exporter v0.97b - (c)2007 guruware
# File Created: 21.01.2017 22:49:53

#
# object M_AirBullet
#

v  1.8021 -3.0306 4.1422
v  0.0524 -3.4995 4.1422
v  0.0524 -4.3743 -0.8570
v  2.2396 -3.7883 -0.8570
v  3.0830 -1.7497 4.1422
v  3.8407 -2.1872 -0.8570
v  3.5519 0.0000 4.1422
v  4.4267 0.0000 -0.8570
v  3.0830 1.7497 4.1422
v  3.8407 2.1872 -0.8570
v  1.8021 3.0306 4.1422
v  2.2396 3.7883 -0.8570
v  0.0524 3.4995 4.1422
v  0.0524 4.3743 -0.8570
v  -1.6973 3.0306 4.1422
v  -2.1348 3.7883 -0.8570
v  -2.9782 1.7497 4.1422
v  -3.7359 2.1872 -0.8570
v  -3.4471 0.0000 4.1422
v  -4.3219 0.0000 -0.8570
v  -2.9782 -1.7497 4.1422
v  -3.7359 -2.1872 -0.8570
v  -1.6973 -3.0306 4.1422
v  -2.1348 -3.7883 -0.8570
v  1.3647 -2.2730 9.1414
v  0.0524 -2.6246 9.1414
v  2.3254 -1.3123 9.1414
v  2.6770 0.0000 9.1414
v  2.3254 1.3123 9.1414
v  1.3647 2.2730 9.1414
v  0.0524 2.6246 9.1414
v  -1.2599 2.2730 9.1414
v  -2.2206 1.3123 9.1414
v  -2.5722 0.0000 9.1414
v  -2.2206 -1.3123 9.1414
v  -1.2599 -2.2730 9.1414
v  0.9273 -1.5153 14.1406
v  0.0524 -1.7497 14.1406
v  1.5677 -0.8749 14.1406
v  1.8021 0.0000 14.1406
v  1.5677 0.8749 14.1406
v  0.9273 1.5153 14.1406
v  0.0524 1.7497 14.1406
v  -0.8225 1.5153 14.1406
v  -1.4629 0.8749 14.1406
v  -1.6973 0.0000 14.1406
v  -1.4629 -0.8749 14.1406
v  -0.8225 -1.5153 14.1406
v  0.4898 -0.7577 19.1398
v  0.0524 -0.8749 19.1398
v  0.8100 -0.4374 19.1398
v  0.9273 0.0000 19.1398
v  0.8100 0.4374 19.1398
v  0.4898 0.7577 19.1398
v  0.0524 0.8749 19.1398
v  -0.3850 0.7577 19.1398
v  -0.7053 0.4374 19.1398
v  -0.8225 0.0000 19.1398
v  -0.7053 -0.4374 19.1398
v  -0.3850 -0.7577 19.1398
v  0.0524 0.0000 24.1390
v  -3.7044 2.1690 -9.8999
v  0.0524 -4.3380 -9.8999
v  -3.7044 -2.1690 -9.8999
v  -4.2856 0.0000 -9.8999
v  0.0524 4.3380 -9.8999
v  3.8092 2.1690 -9.8999
v  -2.1166 3.7568 -9.8999
v  2.2214 3.7568 -9.8999
v  3.8092 -2.1690 -9.8999
v  4.3904 0.0000 -9.8999
v  2.2214 -3.7568 -9.8999
v  -2.1166 -3.7568 -9.8999
v  -1.8259 -3.2532 -5.3785
v  0.0524 -3.7565 -5.3785
v  -3.2008 -1.8782 -5.3785
v  -3.7041 0.0000 -5.3785
v  -3.2008 1.8782 -5.3785
v  -1.8259 3.2532 -5.3785
v  0.0524 3.7565 -5.3785
v  1.9306 3.2532 -5.3785
v  3.3056 1.8782 -5.3785
v  3.8089 0.0000 -5.3785
v  3.3056 -1.8782 -5.3785
v  1.9306 -3.2532 -5.3785
# 85 vertices

vn 0.4925 -0.8531 0.1724
vn -0.0000 -0.9850 0.1724
vn -0.0000 -0.9998 0.0183
vn 0.4999 -0.8659 0.0183
vn 0.8531 -0.4925 0.1724
vn 0.8659 -0.4999 0.0183
vn 0.9850 0.0000 0.1724
vn 0.9998 0.0000 0.0183
vn 0.8531 0.4925 0.1724
vn 0.8659 0.4999 0.0183
vn 0.4925 0.8531 0.1724
vn 0.4999 0.8659 0.0183
vn -0.0000 0.9850 0.1724
vn -0.0000 0.9998 0.0183
vn -0.4925 0.8531 0.1724
vn -0.4999 0.8659 0.0183
vn -0.8531 0.4925 0.1724
vn -0.8659 0.4999 0.0183
vn -0.9850 0.0000 0.1724
vn -0.9998 0.0000 0.0183
vn -0.8531 -0.4925 0.1724
vn -0.8659 -0.4999 0.0183
vn -0.4925 -0.8531 0.1724
vn -0.4999 -0.8659 0.0183
vn 0.2552 -0.9524 0.1667
vn 0.6972 -0.6972 0.1667
vn 0.9524 -0.2552 0.1667
vn 0.9524 0.2552 0.1667
vn 0.6972 0.6972 0.1667
vn 0.2552 0.9524 0.1667
vn -0.2552 0.9524 0.1667
vn -0.6972 0.6972 0.1667
vn -0.9524 0.2552 0.1667
vn -0.9524 -0.2552 0.1667
vn -0.6972 -0.6972 0.1667
vn -0.2552 -0.9524 0.1667
vn 0.0000 0.0000 -1.0000
vn -0.5000 -0.8660 -0.0040
vn 0.0000 -1.0000 -0.0040
vn -0.8660 -0.5000 -0.0040
vn -1.0000 0.0000 -0.0040
vn -0.8660 0.5000 -0.0040
vn -0.5000 0.8660 -0.0040
vn 0.0000 1.0000 -0.0040
vn 0.5000 0.8660 -0.0040
vn 0.8660 0.5000 -0.0040
vn 1.0000 0.0000 -0.0040
vn 0.8660 -0.5000 -0.0040
vn 0.5000 -0.8660 -0.0040
vn -0.4959 -0.8590 0.1276
vn -0.0000 -0.9918 0.1276
vn -0.8590 -0.4959 0.1276
vn -0.9918 0.0000 0.1276
vn -0.8590 0.4959 0.1276
vn -0.4959 0.8590 0.1276
vn -0.0000 0.9918 0.1276
vn 0.4959 0.8590 0.1276
vn 0.8590 0.4959 0.1276
vn 0.9918 0.0000 0.1276
vn 0.8590 -0.4959 0.1276
vn 0.4959 -0.8590 0.1276
# 61 vertex normals

vt 0.8333 0.2000 0.8000
vt 0.7500 0.2000 0.8000
vt 0.7500 0.0000 1.0000
vt 0.8333 0.0000 1.0000
vt 0.9167 0.2000 0.8000
vt 0.9167 0.0000 1.0000
vt 1.0000 0.2000 0.8000
vt 1.0000 0.0000 1.0000
vt 1.0739 0.2016 0.7984
vt 1.0820 0.0020 0.9980
vt 0.1667 0.2000 0.8000
vt 0.0833 0.2000 0.8000
vt 0.0833 0.0000 1.0000
vt 0.1667 0.0000 1.0000
vt 0.2500 0.2000 0.8000
vt 0.2500 0.0000 1.0000
vt 0.3333 0.2000 0.8000
vt 0.3333 0.0000 1.0000
vt 0.4167 0.2000 0.8000
vt 0.4167 0.0000 1.0000
vt 0.5000 0.2000 0.8000
vt 0.5000 0.0000 1.0000
vt 0.5833 0.2000 0.8000
vt 0.5833 0.0000 1.0000
vt 0.6667 0.2000 0.8000
vt 0.6667 0.0000 1.0000
vt 0.8333 0.4000 0.6000
vt 0.7500 0.4000 0.6000
vt 0.9167 0.4000 0.6000
vt 1.0000 0.4000 0.6000
vt 1.0719 0.4012 0.5988
vt 1.0820 0.2016 0.7984
vt 0.1667 0.4000 0.6000
vt 0.0833 0.4000 0.6000
vt 0.2500 0.4000 0.6000
vt 0.3333 0.4000 0.6000
vt 0.4167 0.4000 0.6000
vt 0.5000 0.4000 0.6000
vt 0.5833 0.4000 0.6000
vt 0.6667 0.4000 0.6000
vt 0.8333 0.6000 0.4000
vt 0.7500 0.6000 0.4000
vt 0.9167 0.6000 0.4000
vt 1.0000 0.6000 0.4000
vt 1.0685 0.6008 0.3992
vt 1.0820 0.4012 0.5988
vt 0.1667 0.6000 0.4000
vt 0.0833 0.6000 0.4000
vt 0.2500 0.6000 0.4000
vt 0.3333 0.6000 0.4000
vt 0.4167 0.6000 0.4000
vt 0.5000 0.6000 0.4000
vt 0.5833 0.6000 0.4000
vt 0.6667 0.6000 0.4000
vt 0.8333 0.8000 0.2000
vt 0.7500 0.8000 0.2000
vt 0.9167 0.8000 0.2000
vt 1.0000 0.8000 0.2000
vt 1.0618 0.8004 0.1996
vt 1.0820 0.6008 0.3992
vt 0.1667 0.8000 0.2000
vt 0.0833 0.8000 0.2000
vt 0.2500 0.8000 0.2000
vt 0.3333 0.8000 0.2000
vt 0.4167 0.8000 0.2000
vt 0.5000 0.8000 0.2000
vt 0.5833 0.8000 0.2000
vt 0.6667 0.8000 0.2000
vt 0.5000 1.0000 0.0000
vt 2.0000 0.8000 0.2000
vt 0.1159 0.8004 0.1996
vt 1.5000 1.0000 0.0000
vt 0.9330 0.2500 -0.2500
vt 0.5000 1.0000 -0.2500
vt 0.9330 0.7500 -0.2500
vt 1.0000 0.5000 -0.2500
vt 0.5000 0.0000 -0.2500
vt 0.0670 0.2500 -0.2500
vt 0.7500 0.0670 -0.2500
vt 0.2500 0.0670 -0.2500
vt 0.0670 0.7500 -0.2500
vt 0.0000 0.5000 -0.2500
vt 0.2500 0.9330 -0.2500
vt 0.7500 0.9330 -0.2500
# 84 texture coords

g M_AirBullet
s 1
f 1/1/1 2/2/2 3/3/3 4/4/4 
f 5/5/5 1/1/1 4/4/4 6/6/6 
f 7/7/7 5/5/5 6/6/6 8/8/8 
f 9/9/9 7/7/7 8/8/8 10/10/10 
f 11/11/11 9/12/9 10/13/10 12/14/12 
f 13/15/13 11/11/11 12/14/12 14/16/14 
f 15/17/15 13/15/13 14/16/14 16/18/16 
f 17/19/17 15/17/15 16/18/16 18/20/18 
f 19/21/19 17/19/17 18/20/18 20/22/20 
f 21/23/21 19/21/19 20/22/20 22/24/22 
f 23/25/23 21/23/21 22/24/22 24/26/24 
f 2/2/2 23/25/23 24/26/24 3/3/3 
f 25/27/1 26/28/2 2/2/2 1/1/1 
f 27/29/5 25/27/1 1/1/1 5/5/5 
f 28/30/7 27/29/5 5/5/5 7/7/7 
f 29/31/9 28/30/7 7/7/7 9/32/9 
f 30/33/11 29/34/9 9/12/9 11/11/11 
f 31/35/13 30/33/11 11/11/11 13/15/13 
f 32/36/15 31/35/13 13/15/13 15/17/15 
f 33/37/17 32/36/15 15/17/15 17/19/17 
f 34/38/19 33/37/17 17/19/17 19/21/19 
f 35/39/21 34/38/19 19/21/19 21/23/21 
f 36/40/23 35/39/21 21/23/21 23/25/23 
f 26/28/2 36/40/23 23/25/23 2/2/2 
f 37/41/1 38/42/2 26/28/2 25/27/1 
f 39/43/5 37/41/1 25/27/1 27/29/5 
f 40/44/7 39/43/5 27/29/5 28/30/7 
f 41/45/9 40/44/7 28/30/7 29/46/9 
f 42/47/11 41/48/9 29/34/9 30/33/11 
f 43/49/13 42/47/11 30/33/11 31/35/13 
f 44/50/15 43/49/13 31/35/13 32/36/15 
f 45/51/17 44/50/15 32/36/15 33/37/17 
f 46/52/19 45/51/17 33/37/17 34/38/19 
f 47/53/21 46/52/19 34/38/19 35/39/21 
f 48/54/23 47/53/21 35/39/21 36/40/23 
f 38/42/2 48/54/23 36/40/23 26/28/2 
f 49/55/1 50/56/2 38/42/2 37/41/1 
f 51/57/5 49/55/1 37/41/1 39/43/5 
f 52/58/7 51/57/5 39/43/5 40/44/7 
f 53/59/9 52/58/7 40/44/7 41/60/9 
f 54/61/11 53/62/9 41/48/9 42/47/11 
f 55/63/13 54/61/11 42/47/11 43/49/13 
f 56/64/15 55/63/13 43/49/13 44/50/15 
f 57/65/17 56/64/15 44/50/15 45/51/17 
f 58/66/19 57/65/17 45/51/17 46/52/19 
f 59/67/21 58/66/19 46/52/19 47/53/21 
f 60/68/23 59/67/21 47/53/21 48/54/23 
f 50/56/2 60/68/23 48/54/23 38/42/2 
f 50/56/2 49/55/1 61/69/25 
f 49/55/1 51/57/5 61/69/26 
f 51/57/5 52/58/7 61/69/27 
f 52/70/7 53/71/9 61/72/28 
f 53/62/9 54/61/11 61/69/29 
f 54/61/11 55/63/13 61/69/30 
f 55/63/13 56/64/15 61/69/31 
f 56/64/15 57/65/17 61/69/32 
f 57/65/17 58/66/19 61/69/33 
f 58/66/19 59/67/21 61/69/34 
f 59/67/21 60/68/23 61/69/35 
f 60/68/23 50/56/2 61/69/36 
s 2
f 62/73/37 63/74/37 64/75/37 65/76/37 
f 66/77/37 67/78/37 62/73/37 68/79/37 
f 66/77/37 69/80/37 67/78/37 
f 70/81/37 63/74/37 67/78/37 71/82/37 
f 70/81/37 72/83/37 63/74/37 
f 62/73/37 67/78/37 63/74/37 
f 73/84/37 64/75/37 63/74/37 
s 1
f 74/84/38 75/74/39 3/74/3 24/84/24 
f 76/75/40 74/84/38 24/84/24 22/75/22 
f 77/76/41 76/75/40 22/75/22 20/76/20 
f 78/73/42 77/76/41 20/76/20 18/73/18 
f 79/79/43 78/73/42 18/73/18 16/79/16 
f 80/77/44 79/79/43 16/79/16 14/77/14 
f 81/80/45 80/77/44 14/77/14 12/80/12 
f 82/78/46 81/80/45 12/80/12 10/78/10 
f 83/82/47 82/78/46 10/78/10 8/82/8 
f 84/81/48 83/82/47 8/82/8 6/81/6 
f 85/83/49 84/81/48 6/81/6 4/83/4 
f 75/74/39 85/83/49 4/83/4 3/74/3 
f 73/84/50 63/74/51 75/74/39 74/84/38 
f 64/75/52 73/84/50 74/84/38 76/75/40 
f 65/76/53 64/75/52 76/75/40 77/76/41 
f 62/73/54 65/76/53 77/76/41 78/73/42 
f 68/79/55 62/73/54 78/73/42 79/79/43 
f 66/77/56 68/79/55 79/79/43 80/77/44 
f 69/80/57 66/77/56 80/77/44 81/80/45 
f 67/78/58 69/80/57 81/80/45 82/78/46 
f 71/82/59 67/78/58 82/78/46 83/82/47 
f 70/81/60 71/82/59 83/82/47 84/81/48 
f 72/83/61 70/81/60 84/81/48 85/83/49 
f 63/74/51 72/83/61 85/83/49 75/74/39 
# 75 polygons - 16 triangles

