# 3ds Max Wavefront OBJ Exporter v0.97b - (c)2007 guruware
# File Created: 22.01.2017 01:28:43

#
# object M_Character_Visor
#

v  31.6333 164.2288 -50.2468
v  28.9507 179.8844 -47.6836
v  28.9340 173.5875 -40.8053
v  26.9444 164.2288 -39.4084
v  26.8487 156.3412 -41.5560
v  26.8643 150.4438 -47.9980
v  16.8779 189.2996 -41.9849
v  22.6828 179.0782 -36.7286
v  5.2758 150.4321 -28.0469
v  6.1630 143.6218 -30.5467
v  13.4189 140.0927 -41.6427
v  12.7576 191.2094 -40.8285
v  0.0648 189.1670 -34.0106
v  0.0648 181.0861 -26.6884
v  14.9817 179.9142 -31.3039
v  15.0396 188.8698 -39.4429
v  0.0648 162.3761 -23.5932
v  9.6042 164.1523 -29.4804
v  -31.5037 164.2288 -50.2468
v  -28.8044 173.5875 -40.8053
v  -28.8211 179.8844 -47.6836
v  -26.8149 164.2288 -39.4084
v  -26.7347 150.4437 -47.9980
v  -26.7191 156.3412 -41.5560
v  -16.7484 189.2996 -41.9849
v  -22.5532 179.0782 -36.7286
v  -5.1462 150.4321 -28.0469
v  -3.7354 153.1903 -26.2475
v  -9.4747 164.1523 -29.4804
v  -6.0334 143.6218 -30.5467
v  -13.2893 139.8139 -41.6427
v  -14.9100 188.8697 -39.4429
v  -14.8521 179.9142 -31.3039
v  -12.6280 191.2094 -40.8285
v  0.0648 153.9609 -23.1211
v  3.8650 153.1903 -26.2475
# 36 vertices

vn 0.9460 -0.1017 0.3080
vn 0.8362 0.4290 0.3416
vn 0.8301 0.1737 0.5298
vn 0.7320 -0.1164 0.6713
vn 0.7713 -0.3103 0.5556
vn 0.7697 -0.4494 0.4535
vn 0.6000 0.5825 0.5483
vn 0.6316 0.3425 0.6955
vn 0.5430 -0.1514 0.8260
vn 0.6045 -0.3528 0.7142
vn 0.6411 -0.5329 0.5522
vn 0.2610 0.6503 0.7134
vn -0.0026 0.6730 0.7396
vn 0.0004 0.3912 0.9203
vn 0.4538 0.3262 0.8292
vn 0.3837 0.6292 0.6759
vn 0.0000 0.0297 0.9996
vn 0.4864 -0.0120 0.8737
vn -0.9467 -0.1063 0.3041
vn -0.8301 0.1737 0.5298
vn -0.8362 0.4290 0.3416
vn -0.7395 -0.1368 0.6591
vn -0.7702 -0.4171 0.4824
vn -0.7703 -0.3065 0.5592
vn -0.6000 0.5825 0.5483
vn -0.6316 0.3425 0.6955
vn -0.5430 -0.1514 0.8260
vn -0.5411 -0.0415 0.8399
vn -0.4864 -0.0120 0.8737
vn -0.6052 -0.3509 0.7146
vn -0.6429 -0.5254 0.5573
vn -0.4004 0.6264 0.6688
vn -0.4530 0.3270 0.8294
vn -0.2695 0.6498 0.7107
vn 0.0000 -0.0091 1.0000
vn 0.5411 -0.0415 0.8399
# 36 vertex normals

vt 0.9860 0.4828 0.0000
vt 0.9081 0.6790 0.0000
vt 0.8561 0.5819 0.0000
vt 0.8509 0.4643 0.0000
vt 0.8805 0.3719 0.0000
vt 0.9500 0.2955 0.0000
vt 0.7403 0.7927 0.0000
vt 0.7678 0.6390 0.0000
vt 0.6066 0.2494 0.0000
vt 0.6506 0.1656 0.0000
vt 0.8086 0.1315 0.0000
vt 0.6652 0.8150 0.0000
vt 0.4989 0.7605 0.0000
vt 0.5017 0.6298 0.0000
vt 0.6676 0.6337 0.0000
vt 0.6943 0.7780 0.0000
vt 0.5077 0.3935 0.0000
vt 0.6295 0.4291 0.0000
vt 0.0256 0.4576 0.0000
vt 0.1501 0.5639 0.0000
vt 0.0931 0.6581 0.0000
vt 0.1609 0.4464 0.0000
vt 0.0712 0.2706 0.0000
vt 0.1371 0.3512 0.0000
vt 0.2554 0.7807 0.0000
vt 0.2353 0.6257 0.0000
vt 0.4185 0.2478 0.0000
vt 0.4492 0.2810 0.0000
vt 0.3844 0.4238 0.0000
vt 0.3812 0.1623 0.0000
vt 0.2253 0.1138 0.0000
vt 0.3027 0.7689 0.0000
vt 0.3357 0.6258 0.0000
vt 0.3305 0.8076 0.0000
vt 0.5102 0.2880 0.0000
vt 0.5722 0.2828 0.0000
# 36 texture coords

g M_Character_Visor
s off
f 1/1/1 2/2/2 3/3/3 
f 1/1/1 3/3/3 4/4/4 
f 1/1/1 4/4/4 5/5/5 
f 1/1/1 5/5/5 6/6/6 
f 7/7/7 8/8/8 3/3/3 2/2/2 
f 3/3/3 8/8/8 4/4/4 
f 9/9/9 10/10/10 5/5/5 4/4/4 
f 10/10/10 11/11/11 6/6/6 5/5/5 
f 12/12/12 13/13/13 14/14/14 15/15/15 
f 16/16/16 12/12/12 15/15/15 
f 14/14/14 17/17/17 18/18/18 15/15/15 
f 16/16/16 15/15/15 8/8/8 7/7/7 
f 8/8/8 15/15/15 18/18/18 4/4/4 
f 19/19/19 20/20/20 21/21/21 
f 19/19/19 22/22/22 20/20/20 
f 19/19/19 23/23/23 24/24/24 22/22/22 
f 25/25/25 21/21/21 20/20/20 26/26/26 
f 20/20/20 22/22/22 26/26/26 
f 27/27/27 28/28/28 29/29/29 22/22/22 
f 30/30/30 24/24/24 23/23/23 31/31/31 
f 32/32/32 33/33/33 14/14/14 34/34/34 
f 14/14/14 13/13/13 34/34/34 
f 29/29/29 17/17/17 14/14/14 33/33/33 
f 32/32/32 25/25/25 26/26/26 33/33/33 
f 26/26/26 22/22/22 29/29/29 33/33/33 
f 29/29/29 28/28/28 35/35/35 17/17/17 
f 18/18/18 17/17/17 35/35/35 36/36/36 
f 18/18/18 36/36/36 9/9/9 4/4/4 
f 24/24/24 30/30/30 27/27/27 22/22/22 
# 19 polygons - 10 triangles

