# 3ds Max Wavefront OBJ Exporter v0.97b - (c)2007 guruware
# File Created: 21.01.2017 18:18:30

#
# object M_FireRobot_Visor
#

v  24.7452 112.0219 -6.3919
v  23.8200 122.4173 -17.2008
v  12.9825 123.6945 -11.5998
v  13.6254 113.0739 -0.0076
v  22.7108 133.0818 -31.0258
v  12.2538 134.5876 -26.8945
v  0.0000 134.5307 -24.4596
v  0.0000 123.6876 -8.5122
v  0.0000 113.1322 3.3815
v  21.6507 141.0443 -45.9436
v  11.6550 142.6201 -44.0626
v  20.5449 145.4393 -58.8127
v  11.0570 147.1350 -58.9479
v  0.0000 147.1239 -58.6140
v  0.0000 142.5759 -42.7322
v  25.5849 96.7837 3.1082
v  14.1650 97.6595 9.4257
v  0.0000 97.7980 12.6480
v  -11.6550 142.6201 -44.0626
v  -12.2537 134.5876 -26.8945
v  -11.0569 147.1350 -58.9479
v  -20.5448 145.4393 -58.8128
v  -21.6506 141.0443 -45.9436
v  -22.7107 133.0818 -31.0258
v  -12.9825 123.6945 -11.5998
v  -23.8200 122.4173 -17.2008
v  -24.7451 112.0219 -6.3919
v  -13.6254 113.0739 -0.0076
v  -14.1650 97.6595 9.4257
v  -25.5849 96.7837 3.1082
# 30 vertices

vn 0.4053 0.6807 0.6102
vn 0.3482 0.7638 0.5435
vn 0.1216 0.8161 0.5650
vn 0.1617 0.7351 0.6584
vn 0.2549 0.8706 0.4208
vn 0.1837 0.9392 0.2902
vn 0.0183 0.9592 0.2822
vn 0.0610 0.9094 0.4115
vn 0.4612 0.4812 0.7455
vn 0.2023 0.5115 0.8352
vn -0.0610 0.9094 0.4115
vn -0.0183 0.9592 0.2822
vn -0.1837 0.9392 0.2902
vn -0.2549 0.8706 0.4208
vn -0.1216 0.8161 0.5650
vn -0.3482 0.7638 0.5435
vn -0.4053 0.6807 0.6102
vn -0.1617 0.7351 0.6584
vn -0.2023 0.5115 0.8352
vn -0.4612 0.4812 0.7455
# 20 vertex normals

vt 0.3886 0.5077 0.0000
vt 0.3913 0.5611 0.0000
vt 0.3487 0.5531 0.0000
vt 0.3454 0.4998 0.0000
vt 0.3941 0.6253 0.0000
vt 0.3528 0.6199 0.0000
vt 0.3077 0.6162 0.0000
vt 0.3030 0.5487 0.0000
vt 0.2995 0.4961 0.0000
vt 0.3992 0.6893 0.0000
vt 0.3593 0.6912 0.0000
vt 0.4060 0.7430 0.0000
vt 0.3672 0.7547 0.0000
vt 0.3185 0.7603 0.0000
vt 0.3133 0.6912 0.0000
vt 0.3882 0.4443 0.0000
vt 0.3437 0.4393 0.0000
vt 0.2958 0.4378 0.0000
vt 0.2678 0.6979 0.0000
vt 0.2635 0.6262 0.0000
vt 0.2696 0.7620 0.0000
vt 0.2297 0.7563 0.0000
vt 0.2281 0.7020 0.0000
vt 0.2233 0.6375 0.0000
vt 0.2583 0.5593 0.0000
vt 0.2169 0.5731 0.0000
vt 0.2124 0.5194 0.0000
vt 0.2544 0.5058 0.0000
vt 0.2483 0.4453 0.0000
vt 0.2046 0.4561 0.0000
# 30 texture coords

g M_FireRobot_Visor
s off
f 1/1/1 2/2/1 3/3/1 4/4/1 
f 2/2/2 5/5/2 6/6/2 3/3/2 
f 7/7/3 8/8/3 3/3/3 6/6/3 
f 8/8/4 9/9/4 4/4/4 3/3/4 
f 5/5/5 10/10/5 11/11/5 6/6/5 
f 10/10/6 12/12/6 13/13/6 11/11/6 
f 14/14/7 15/15/7 11/11/7 13/13/7 
f 15/15/8 7/7/8 6/6/8 11/11/8 
f 16/16/9 1/1/9 4/4/9 17/17/9 
f 18/18/10 17/17/10 4/4/10 9/9/10 
f 7/7/11 15/15/11 19/19/11 20/20/11 
f 15/15/12 14/14/12 21/21/12 19/19/12 
f 22/22/13 23/23/13 19/19/13 21/21/13 
f 23/23/14 24/24/14 20/20/14 19/19/14 
f 7/7/15 20/20/15 25/25/15 8/8/15 
f 20/20/16 24/24/16 26/26/16 25/25/16 
f 27/27/17 28/28/17 25/25/17 26/26/17 
f 28/28/18 9/9/18 8/8/18 25/25/18 
f 9/9/19 28/28/19 29/29/19 18/18/19 
f 27/27/20 30/30/20 29/29/20 28/28/20 
# 20 polygons

