# 3ds Max Wavefront OBJ Exporter v0.97b - (c)2007 guruware
# File Created: 21.01.2017 18:19:30

#
# object M_WaterRobot_Wheel
#

v  23.7488 76.6873 -77.0871
v  -23.7488 76.6873 -77.0871
v  -23.7488 103.0526 -72.4382
v  23.7488 103.0527 -72.4382
v  -23.7488 126.2379 -59.0521
v  23.7488 126.2379 -59.0521
v  -23.7488 143.4467 -38.5435
v  23.7488 143.4467 -38.5436
v  -23.7489 152.6033 -13.3860
v  23.7488 152.6033 -13.3860
v  -23.7489 152.6033 13.3860
v  23.7488 152.6033 13.3860
v  -23.7488 143.4467 38.5435
v  23.7488 143.4467 38.5435
v  -23.7488 126.2379 59.0521
v  23.7488 126.2380 59.0521
v  -23.7488 103.0527 72.4382
v  23.7488 103.0527 72.4382
v  -23.7488 76.6868 77.0871
v  23.7488 76.6878 77.0871
v  -23.7488 50.3225 72.4384
v  23.7488 50.3215 72.4380
v  -23.7488 27.1367 59.0522
v  23.7488 27.1367 59.0522
v  -23.7488 9.9279 38.5436
v  23.7488 9.9279 38.5436
v  -23.7488 0.7713 13.3861
v  23.7488 0.7713 13.3861
v  -23.7488 0.7714 -13.3865
v  23.7488 0.7713 -13.3860
v  -23.7488 9.9276 -38.5430
v  23.7488 9.9279 -38.5435
v  -23.7488 27.1366 -59.0521
v  23.7488 27.1362 -59.0518
v  -23.7488 50.3219 -72.4381
v  23.7488 50.3224 -72.4383
v  19.0140 101.7035 -68.7314
v  19.0140 76.6873 -73.1424
v  19.0140 51.6713 -68.7315
v  19.0140 29.6720 -56.0301
v  19.0140 13.3441 -36.5712
v  19.0140 4.6561 -12.7010
v  19.0140 4.6561 12.7011
v  19.0140 13.3441 36.5713
v  19.0140 29.6723 56.0304
v  19.0140 51.6709 68.7313
v  19.0140 76.6876 73.1424
v  19.0140 101.7035 68.7314
v  19.0140 123.7024 56.0303
v  19.0140 140.0305 36.5712
v  19.0140 148.7185 12.7010
v  19.0140 148.7185 -12.7011
v  19.0140 140.0305 -36.5712
v  19.0140 123.7024 -56.0304
v  -19.0140 76.6873 -73.1424
v  -19.0140 101.7035 -68.7314
v  -19.0140 123.7023 -56.0303
v  -19.0140 140.0305 -36.5712
v  -19.0140 148.7185 -12.7011
v  -19.0140 148.7185 12.7010
v  -19.0140 140.0305 36.5712
v  -19.0140 123.7024 56.0303
v  -19.0140 101.7035 68.7314
v  -19.0140 76.6870 73.1424
v  -19.0140 51.6714 68.7315
v  -19.0140 29.6723 56.0304
v  -19.0140 13.3441 36.5712
v  -19.0140 4.6561 12.7011
v  -19.0140 4.6561 -12.7013
v  -19.0140 13.3439 -36.5709
v  -19.0140 29.6722 -56.0303
v  -19.0140 51.6711 -68.7314
v  -3.7711 13.3440 -36.5710
v  -3.7711 27.3043 -53.2083
v  -7.4548 29.6721 -56.0302
v  3.7711 27.3042 -53.2083
v  3.7711 13.3440 -36.5710
v  7.4548 29.6720 -56.0302
v  -3.7711 32.8623 -57.8721
v  -3.7711 51.6712 -68.7314
v  3.7711 51.6712 -68.7314
v  3.7711 32.8623 -57.8721
v  -3.7711 76.6873 -73.1424
v  3.7711 76.6873 -73.1424
v  -3.7711 98.0757 -69.3711
v  -7.4548 101.7035 -68.7314
v  3.7711 98.0757 -69.3711
v  7.4548 101.7035 -68.7314
v  -3.7711 104.8937 -66.8895
v  -3.7711 123.7023 -56.0303
v  3.7711 123.7023 -56.0303
v  3.7711 104.8937 -66.8895
v  -3.7711 140.0305 -36.5712
v  3.7711 140.0305 -36.5712
v  -3.7711 147.4586 -16.1626
v  -7.4548 148.7185 -12.7011
v  3.7711 147.4586 -16.1626
v  7.4548 148.7185 -12.7011
v  -3.7711 148.7185 -9.0173
v  -3.7711 148.7185 12.7010
v  3.7711 148.7185 12.7010
v  3.7711 148.7185 -9.0173
v  -3.7711 140.0305 36.5712
v  3.7711 140.0305 36.5712
v  -3.7711 126.0702 53.2084
v  -7.4548 123.7024 56.0303
v  3.7711 126.0702 53.2084
v  7.4548 123.7024 56.0303
v  -3.7711 120.5122 57.8722
v  -3.7711 101.7035 68.7314
v  3.7711 101.7035 68.7314
v  3.7711 120.5122 57.8722
v  -3.7711 76.6873 73.1424
v  3.7711 76.6874 73.1424
v  -3.7711 55.2990 69.3711
v  -7.4548 51.6713 68.7314
v  3.7711 55.2989 69.3710
v  7.4548 51.6710 68.7314
v  -3.7711 48.4810 66.8896
v  -3.7711 29.6723 56.0304
v  3.7711 29.6723 56.0304
v  3.7711 48.4809 66.8895
v  -3.7711 13.3441 36.5712
v  3.7711 13.3441 36.5712
v  -3.7711 5.9160 16.1627
v  -7.4548 4.6561 12.7011
v  3.7711 5.9160 16.1627
v  7.4548 4.6561 12.7011
v  -3.7711 4.6561 9.0174
v  -3.7711 4.6561 -12.7012
v  3.7711 4.6561 -12.7011
v  3.7711 4.6561 9.0174
v  -1.7846 90.5130 -48.5925
v  -1.7846 97.3309 -46.1110
v  -1.7846 125.6825 -12.3229
v  -1.7846 126.9424 -5.1776
v  -1.7846 111.8569 36.2696
v  -1.7846 106.2988 40.9334
v  -1.7846 62.8617 48.5926
v  -1.7846 56.0437 46.1110
v  -1.7846 27.6921 12.3229
v  -1.7846 26.4322 5.1777
v  -1.7846 41.5177 -36.2696
v  -1.7846 47.0758 -40.9334
v  1.7846 97.3309 -46.1110
v  1.7846 90.5130 -48.5926
v  1.7846 47.0757 -40.9334
v  1.7846 41.5177 -36.2696
v  1.7846 26.4322 5.1777
v  1.7846 27.6921 12.3229
v  1.7846 56.0437 46.1110
v  1.7846 62.8617 48.5926
v  1.7846 106.2988 40.9334
v  1.7846 111.8569 36.2696
v  1.7846 126.9424 -5.1776
v  1.7846 125.6825 -12.3229
# 156 vertices

vn 0.9047 -0.0000 -0.4259
vn -0.9047 0.0000 -0.4259
vn -0.9047 0.1457 -0.4003
vn 0.9047 0.1457 -0.4003
vn -0.9047 0.2738 -0.3263
vn 0.9047 0.2738 -0.3263
vn -0.9047 0.3689 -0.2130
vn 0.9047 0.3689 -0.2130
vn -0.9047 0.4195 -0.0740
vn 0.9047 0.4195 -0.0740
vn -0.9047 0.4195 0.0740
vn 0.9047 0.4195 0.0740
vn -0.9047 0.3689 0.2130
vn 0.9047 0.3689 0.2130
vn -0.9047 0.2738 0.3263
vn 0.9047 0.2738 0.3263
vn -0.9047 0.1457 0.4003
vn 0.9047 0.1457 0.4003
vn -0.9047 0.0000 0.4259
vn 0.9047 -0.0000 0.4259
vn -0.9047 -0.1457 0.4003
vn 0.9047 -0.1457 0.4003
vn -0.9047 -0.2738 0.3263
vn 0.9047 -0.2738 0.3263
vn -0.9047 -0.3689 0.2130
vn 0.9047 -0.3689 0.2130
vn -0.9047 -0.4195 0.0740
vn 0.9047 -0.4195 0.0740
vn -0.9047 -0.4195 -0.0740
vn 0.9047 -0.4195 -0.0740
vn -0.9047 -0.3689 -0.2130
vn 0.9047 -0.3689 -0.2130
vn -0.9047 -0.2738 -0.3263
vn 0.9047 -0.2738 -0.3263
vn -0.9047 -0.1457 -0.4003
vn 0.9047 -0.1457 -0.4003
vn 0.3530 -0.3200 0.8792
vn 0.3530 -0.0000 0.9356
vn 0.3530 0.3200 0.8792
vn 0.3530 0.6014 0.7167
vn 0.3530 0.8103 0.4678
vn 0.3530 0.9214 0.1625
vn 0.3530 0.9214 -0.1625
vn 0.3530 0.8103 -0.4678
vn 0.3530 0.6014 -0.7167
vn 0.3530 0.3200 -0.8792
vn 0.3530 -0.0000 -0.9356
vn 0.3530 -0.3200 -0.8792
vn 0.3530 -0.6014 -0.7167
vn 0.3530 -0.8103 -0.4678
vn 0.3530 -0.9214 -0.1625
vn 0.3530 -0.9214 0.1625
vn 0.3530 -0.8103 0.4678
vn 0.3530 -0.6014 0.7167
vn -0.3530 0.0000 0.9356
vn -0.3530 -0.3200 0.8792
vn -0.3530 -0.6014 0.7167
vn -0.3530 -0.8103 0.4678
vn -0.3530 -0.9214 0.1625
vn -0.3530 -0.9214 -0.1625
vn -0.3530 -0.8103 -0.4678
vn -0.3530 -0.6014 -0.7167
vn -0.3530 -0.3200 -0.8792
vn -0.3530 -0.0000 -0.9356
vn -0.3530 0.3200 -0.8792
vn -0.3530 0.6014 -0.7167
vn -0.3530 0.8103 -0.4678
vn -0.3530 0.9214 -0.1625
vn -0.3530 0.9214 0.1625
vn -0.3530 0.8103 0.4678
vn -0.3530 0.6014 0.7167
vn -0.3530 0.3200 0.8792
vn -0.0000 0.8660 0.5000
vn -0.3303 0.4796 0.8130
vn -0.0428 0.6422 0.7653
vn 0.3303 0.4796 0.8130
vn 0.0428 0.6422 0.7653
vn -0.3303 0.7173 0.6135
vn -0.0000 0.3420 0.9397
vn 0.3303 0.7173 0.6135
vn 0.0000 -0.0000 1.0000
vn -0.3303 -0.4642 0.8218
vn -0.0428 -0.3417 0.9388
vn 0.3303 -0.4642 0.8218
vn 0.0428 -0.3417 0.9388
vn -0.3303 -0.1726 0.9280
vn 0.0000 -0.6428 0.7660
vn 0.3303 -0.1726 0.9280
vn 0.0000 -0.8660 0.5000
vn -0.3303 -0.9438 0.0089
vn -0.0428 -0.9839 0.1735
vn 0.3303 -0.9438 0.0089
vn 0.0428 -0.9839 0.1735
vn -0.3303 -0.8900 0.3145
vn 0.0000 -0.9848 -0.1736
vn 0.3303 -0.8900 0.3145
vn 0.0000 -0.8660 -0.5000
vn -0.3303 -0.4796 -0.8130
vn -0.0428 -0.6422 -0.7653
vn 0.3303 -0.4796 -0.8130
vn 0.0428 -0.6422 -0.7653
vn -0.3303 -0.7173 -0.6135
vn 0.0000 -0.3420 -0.9397
vn 0.3303 -0.7173 -0.6135
vn -0.0000 -0.0000 -1.0000
vn -0.3303 0.4642 -0.8218
vn -0.0428 0.3417 -0.9388
vn 0.3303 0.4642 -0.8218
vn 0.0428 0.3417 -0.9388
vn -0.3303 0.1726 -0.9280
vn 0.0000 0.6428 -0.7660
vn 0.3303 0.1726 -0.9280
vn 0.0000 0.8660 -0.5000
vn -0.3303 0.9438 -0.0089
vn -0.0428 0.9839 -0.1735
vn 0.3303 0.9438 -0.0089
vn 0.0428 0.9839 -0.1735
vn -0.3303 0.8900 -0.3145
vn -0.0000 0.9848 0.1736
vn 0.3303 0.8900 -0.3145
vn -0.2702 -0.1243 -0.9547
vn -0.2702 0.7089 -0.6515
vn -0.2702 0.7647 -0.5850
vn -0.2702 0.9187 0.2882
vn -0.2702 0.8890 0.3697
vn -0.2702 0.2097 0.9397
vn -0.2702 0.1243 0.9547
vn -0.2702 -0.7089 0.6515
vn -0.2702 -0.7647 0.5850
vn -0.2702 -0.9187 -0.2882
vn -0.2702 -0.8890 -0.3697
vn -0.2702 -0.2097 -0.9397
vn 0.2702 0.7089 -0.6515
vn 0.2702 -0.1243 -0.9547
vn 0.2702 -0.2097 -0.9397
vn 0.2702 -0.8890 -0.3697
vn 0.2702 -0.9187 -0.2882
vn 0.2702 -0.7647 0.5850
vn 0.2702 -0.7089 0.6515
vn 0.2702 0.1243 0.9547
vn 0.2702 0.2097 0.9397
vn 0.2702 0.8890 0.3697
vn 0.2702 0.9187 0.2882
vn 0.2702 0.7647 -0.5850
# 144 vertex normals

vt 0.0289 0.6112 0.0000
vt 0.1369 0.6112 0.0000
vt 0.1369 0.6711 0.0000
vt 0.0289 0.6711 0.0000
vt 0.1369 0.7238 0.0000
vt 0.0289 0.7238 0.0000
vt 0.1369 0.7704 0.0000
vt 0.0289 0.7704 0.0000
vt 0.1369 0.8276 0.0000
vt 0.0289 0.8276 0.0000
vt 0.1369 0.8884 0.0000
vt 0.0289 0.8884 0.0000
vt 0.1369 0.9456 0.0000
vt 0.0289 0.9456 0.0000
vt 0.1369 0.9922 0.0000
vt 0.0289 0.9922 0.0000
vt 0.0289 0.0028 0.0000
vt 0.1369 0.0028 0.0000
vt 0.1369 0.0554 0.0000
vt 0.0289 0.0554 0.0000
vt 0.1369 0.1153 0.0000
vt 0.0289 0.1153 0.0000
vt 0.1369 0.1753 0.0000
vt 0.0289 0.1753 0.0000
vt 0.1369 0.2279 0.0000
vt 0.0289 0.2279 0.0000
vt 0.1369 0.2768 0.0000
vt 0.0289 0.2768 0.0000
vt 0.1369 0.3340 0.0000
vt 0.0289 0.3340 0.0000
vt 0.1369 0.3948 0.0000
vt 0.0289 0.3948 0.0000
vt 0.1369 0.4520 0.0000
vt 0.0289 0.4520 0.0000
vt 0.1369 0.4986 0.0000
vt 0.0289 0.4986 0.0000
vt 0.1369 0.5513 0.0000
vt 0.0289 0.5513 0.0000
vt 0.7358 0.6425 0.0000
vt 0.7961 0.6320 0.0000
vt 0.7964 0.6459 0.0000
vt 0.7403 0.6557 0.0000
vt 0.6821 0.6711 0.0000
vt 0.6904 0.6819 0.0000
vt 0.6413 0.7144 0.0000
vt 0.6524 0.7217 0.0000
vt 0.6184 0.7675 0.0000
vt 0.6310 0.7704 0.0000
vt 0.6167 0.8240 0.0000
vt 0.6292 0.8218 0.0000
vt 0.6374 0.8766 0.0000
vt 0.6482 0.8696 0.0000
vt 0.6769 0.9189 0.0000
vt 0.6848 0.9082 0.0000
vt 0.7299 0.9459 0.0000
vt 0.7340 0.9328 0.0000
vt 0.7901 0.9546 0.0000
vt 0.7898 0.9408 0.0000
vt 0.8504 0.9442 0.0000
vt 0.8459 0.9310 0.0000
vt 0.9041 0.9156 0.0000
vt 0.8958 0.9047 0.0000
vt 0.9449 0.8723 0.0000
vt 0.9338 0.8649 0.0000
vt 0.9678 0.8192 0.0000
vt 0.9552 0.8163 0.0000
vt 0.9696 0.7627 0.0000
vt 0.9571 0.7649 0.0000
vt 0.9488 0.7101 0.0000
vt 0.9380 0.7170 0.0000
vt 0.9093 0.6678 0.0000
vt 0.9014 0.6785 0.0000
vt 0.8563 0.6408 0.0000
vt 0.8522 0.6538 0.0000
vt 0.8670 0.3922 0.0000
vt 0.8111 0.4036 0.0000
vt 0.8111 0.3907 0.0000
vt 0.8621 0.3802 0.0000
vt 0.9158 0.3608 0.0000
vt 0.9067 0.3510 0.0000
vt 0.9517 0.3135 0.0000
vt 0.9396 0.3072 0.0000
vt 0.9707 0.2561 0.0000
vt 0.9571 0.2539 0.0000
vt 0.9707 0.1953 0.0000
vt 0.9571 0.1975 0.0000
vt 0.9517 0.1379 0.0000
vt 0.9396 0.1442 0.0000
vt 0.9158 0.0906 0.0000
vt 0.9067 0.1004 0.0000
vt 0.8670 0.0591 0.0000
vt 0.8621 0.0712 0.0000
vt 0.8111 0.0478 0.0000
vt 0.8111 0.0607 0.0000
vt 0.7551 0.0591 0.0000
vt 0.7601 0.0712 0.0000
vt 0.7064 0.0906 0.0000
vt 0.7155 0.1003 0.0000
vt 0.6705 0.1379 0.0000
vt 0.6826 0.1442 0.0000
vt 0.6515 0.1953 0.0000
vt 0.6651 0.1975 0.0000
vt 0.6515 0.2561 0.0000
vt 0.6651 0.2539 0.0000
vt 0.6705 0.3135 0.0000
vt 0.6825 0.3072 0.0000
vt 0.7064 0.3608 0.0000
vt 0.7154 0.3510 0.0000
vt 0.7551 0.3922 0.0000
vt 0.7601 0.3802 0.0000
vt 0.2047 0.0933 0.0000
vt 0.2047 0.0555 0.0000
vt 0.2131 0.0491 0.0000
vt 0.2394 0.0491 0.0000
vt 0.2394 0.0933 0.0000
vt 0.1876 0.0555 0.0000
vt 0.1876 0.0933 0.0000
vt 0.1529 0.0933 0.0000
vt 0.1529 0.0491 0.0000
vt 0.1792 0.0491 0.0000
vt 0.2047 0.9795 0.0000
vt 0.2047 0.9367 0.0000
vt 0.2394 0.9367 0.0000
vt 0.2394 0.9868 0.0000
vt 0.2131 0.9868 0.0000
vt 0.1876 0.9367 0.0000
vt 0.1876 0.9795 0.0000
vt 0.1792 0.9868 0.0000
vt 0.1529 0.9868 0.0000
vt 0.1529 0.9367 0.0000
vt 0.2394 0.8798 0.0000
vt 0.2047 0.8798 0.0000
vt 0.1529 0.8798 0.0000
vt 0.1876 0.8798 0.0000
vt 0.2047 0.8312 0.0000
vt 0.2131 0.8229 0.0000
vt 0.2394 0.8229 0.0000
vt 0.1876 0.8312 0.0000
vt 0.1529 0.8229 0.0000
vt 0.1792 0.8229 0.0000
vt 0.2047 0.8157 0.0000
vt 0.2047 0.7729 0.0000
vt 0.2394 0.7729 0.0000
vt 0.1876 0.7729 0.0000
vt 0.1876 0.8157 0.0000
vt 0.1529 0.7729 0.0000
vt 0.2394 0.7286 0.0000
vt 0.2047 0.7286 0.0000
vt 0.1529 0.7286 0.0000
vt 0.1876 0.7286 0.0000
vt 0.2047 0.6822 0.0000
vt 0.2131 0.6743 0.0000
vt 0.2394 0.6743 0.0000
vt 0.1876 0.6822 0.0000
vt 0.1529 0.6743 0.0000
vt 0.1792 0.6743 0.0000
vt 0.2047 0.6659 0.0000
vt 0.2047 0.6165 0.0000
vt 0.2394 0.6165 0.0000
vt 0.1876 0.6165 0.0000
vt 0.1876 0.6659 0.0000
vt 0.1529 0.6165 0.0000
vt 0.2394 0.5622 0.0000
vt 0.2047 0.5622 0.0000
vt 0.1529 0.5622 0.0000
vt 0.1876 0.5622 0.0000
vt 0.2048 0.5243 0.0000
vt 0.2130 0.5180 0.0000
vt 0.2394 0.5179 0.0000
vt 0.1875 0.5243 0.0000
vt 0.1529 0.5179 0.0000
vt 0.1792 0.5180 0.0000
vt 0.2042 0.5110 0.0000
vt 0.2047 0.4679 0.0000
vt 0.2394 0.4679 0.0000
vt 0.1876 0.4679 0.0000
vt 0.1880 0.5110 0.0000
vt 0.1529 0.4679 0.0000
vt 0.2394 0.4110 0.0000
vt 0.2047 0.4110 0.0000
vt 0.1529 0.4110 0.0000
vt 0.1876 0.4110 0.0000
vt 0.2047 0.3623 0.0000
vt 0.2131 0.3541 0.0000
vt 0.2394 0.3541 0.0000
vt 0.1876 0.3623 0.0000
vt 0.1529 0.3541 0.0000
vt 0.1792 0.3541 0.0000
vt 0.2047 0.3468 0.0000
vt 0.2047 0.3040 0.0000
vt 0.2394 0.3040 0.0000
vt 0.1876 0.3040 0.0000
vt 0.1876 0.3468 0.0000
vt 0.1529 0.3040 0.0000
vt 0.2394 0.2597 0.0000
vt 0.2047 0.2597 0.0000
vt 0.1529 0.2597 0.0000
vt 0.1876 0.2597 0.0000
vt 0.2047 0.2133 0.0000
vt 0.2131 0.2054 0.0000
vt 0.2394 0.2054 0.0000
vt 0.1876 0.2133 0.0000
vt 0.1529 0.2054 0.0000
vt 0.1792 0.2054 0.0000
vt 0.2047 0.1971 0.0000
vt 0.2047 0.1477 0.0000
vt 0.2394 0.1476 0.0000
vt 0.1876 0.1477 0.0000
vt 0.1876 0.1971 0.0000
vt 0.1529 0.1477 0.0000
vt 0.2047 0.9922 0.0000
vt 0.1876 0.9922 0.0000
vt 0.8789 0.1978 0.0000
vt 0.8723 0.1836 0.0000
vt 0.9158 0.1634 0.0000
vt 0.9224 0.1776 0.0000
vt 0.8941 0.2756 0.0000
vt 0.8974 0.2603 0.0000
vt 0.9443 0.2705 0.0000
vt 0.9409 0.2859 0.0000
vt 0.8359 0.1557 0.0000
vt 0.8265 0.1432 0.0000
vt 0.8647 0.1143 0.0000
vt 0.8742 0.1268 0.0000
vt 0.7418 0.2930 0.0000
vt 0.7529 0.3041 0.0000
vt 0.7189 0.3380 0.0000
vt 0.7078 0.3268 0.0000
vt 0.7247 0.2186 0.0000
vt 0.7228 0.2341 0.0000
vt 0.6752 0.2281 0.0000
vt 0.6772 0.2126 0.0000
vt 0.7630 0.1455 0.0000
vt 0.7511 0.1557 0.0000
vt 0.7198 0.1194 0.0000
vt 0.7317 0.1092 0.0000
vt 0.8855 0.2202 0.0000
vt 0.8815 0.2050 0.0000
vt 0.9279 0.1929 0.0000
vt 0.9319 0.2081 0.0000
vt 0.7828 0.1330 0.0000
vt 0.7693 0.1410 0.0000
vt 0.7449 0.0997 0.0000
vt 0.7584 0.0917 0.0000
vt 0.7311 0.1961 0.0000
vt 0.7264 0.2110 0.0000
vt 0.6806 0.1967 0.0000
vt 0.6853 0.1817 0.0000
vt 0.7280 0.2742 0.0000
vt 0.7369 0.2871 0.0000
vt 0.6974 0.3143 0.0000
vt 0.6885 0.3014 0.0000
vt 0.8213 0.1375 0.0000
vt 0.8098 0.1269 0.0000
vt 0.8422 0.0916 0.0000
vt 0.8538 0.1022 0.0000
vt 0.8857 0.2975 0.0000
vt 0.8918 0.2830 0.0000
vt 0.9360 0.3014 0.0000
vt 0.9300 0.3159 0.0000
vt 0.8685 0.1769 0.0000
vt 0.9077 0.1493 0.0000
vt 0.8984 0.2527 0.0000
vt 0.9463 0.2544 0.0000
vt 0.8828 0.1406 0.0000
vt 0.8400 0.1623 0.0000
vt 0.7588 0.3091 0.0000
vt 0.7313 0.3484 0.0000
vt 0.7225 0.2418 0.0000
vt 0.6746 0.2444 0.0000
vt 0.7458 0.1613 0.0000
vt 0.7085 0.1311 0.0000
# 272 texture coords

g M_WaterRobot_Wheel
s off
f 1/1/1 2/2/2 3/3/3 4/4/4 
f 4/4/4 3/3/3 5/5/5 6/6/6 
f 6/6/6 5/5/5 7/7/7 8/8/8 
f 8/8/8 7/7/7 9/9/9 10/10/10 
f 10/10/10 9/9/9 11/11/11 12/12/12 
f 12/12/12 11/11/11 13/13/13 14/14/14 
f 14/14/14 13/13/13 15/15/15 16/16/16 
f 16/17/16 15/18/15 17/19/17 18/20/18 
f 18/20/18 17/19/17 19/21/19 20/22/20 
f 20/22/20 19/21/19 21/23/21 22/24/22 
f 22/24/22 21/23/21 23/25/23 24/26/24 
f 24/26/24 23/25/23 25/27/25 26/28/26 
f 26/28/26 25/27/25 27/29/27 28/30/28 
f 28/30/28 27/29/27 29/31/29 30/32/30 
f 30/32/30 29/31/29 31/33/31 32/34/32 
f 32/34/32 31/33/31 33/35/33 34/36/34 
f 34/36/34 33/35/33 35/37/35 36/38/36 
f 36/38/36 35/37/35 2/2/2 1/1/1 
f 1/39/1 4/40/4 37/41/37 38/42/38 
f 36/43/36 1/39/1 38/42/38 39/44/39 
f 34/45/34 36/43/36 39/44/39 40/46/40 
f 32/47/32 34/45/34 40/46/40 41/48/41 
f 30/49/30 32/47/32 41/48/41 42/50/42 
f 28/51/28 30/49/30 42/50/42 43/52/43 
f 26/53/26 28/51/28 43/52/43 44/54/44 
f 24/55/24 26/53/26 44/54/44 45/56/45 
f 22/57/22 24/55/24 45/56/45 46/58/46 
f 20/59/20 22/57/22 46/58/46 47/60/47 
f 18/61/18 20/59/20 47/60/47 48/62/48 
f 16/63/16 18/61/18 48/62/48 49/64/49 
f 14/65/14 16/63/16 49/64/49 50/66/50 
f 12/67/12 14/65/14 50/66/50 51/68/51 
f 10/69/10 12/67/12 51/68/51 52/70/52 
f 8/71/8 10/69/10 52/70/52 53/72/53 
f 6/73/6 8/71/8 53/72/53 54/74/54 
f 4/40/4 6/73/6 54/74/54 37/41/37 
f 3/75/3 2/76/2 55/77/55 56/78/56 
f 5/79/5 3/75/3 56/78/56 57/80/57 
f 7/81/7 5/79/5 57/80/57 58/82/58 
f 9/83/9 7/81/7 58/82/58 59/84/59 
f 11/85/11 9/83/9 59/84/59 60/86/60 
f 13/87/13 11/85/11 60/86/60 61/88/61 
f 15/89/15 13/87/13 61/88/61 62/90/62 
f 17/91/17 15/89/15 62/90/62 63/92/63 
f 19/93/19 17/91/17 63/92/63 64/94/64 
f 21/95/21 19/93/19 64/94/64 65/96/65 
f 23/97/23 21/95/21 65/96/65 66/98/66 
f 25/99/25 23/97/23 66/98/66 67/100/67 
f 27/101/27 25/99/25 67/100/67 68/102/68 
f 29/103/29 27/101/27 68/102/68 69/104/69 
f 31/105/31 29/103/29 69/104/69 70/106/70 
f 33/107/33 31/105/31 70/106/70 71/108/71 
f 35/109/35 33/107/33 71/108/71 72/110/72 
f 2/76/2 35/109/35 72/110/72 55/77/55 
f 73/111/73 74/112/74 75/113/75 71/114/71 
f 73/111/73 71/114/71 70/115/70 
f 76/116/76 77/117/73 41/118/41 40/119/40 
f 76/116/76 40/119/40 78/120/77 
f 79/121/78 80/122/79 72/123/72 71/124/71 
f 79/121/78 71/124/71 75/125/75 
f 81/126/79 82/127/80 78/128/77 40/129/40 
f 81/126/79 40/129/40 39/130/39 
f 55/131/55 72/123/72 80/122/79 83/132/81 
f 39/130/39 38/133/38 84/134/81 81/126/79 
f 83/132/81 85/135/82 86/136/83 56/137/56 
f 83/132/81 56/137/56 55/131/55 
f 87/138/84 84/134/81 38/133/38 37/139/37 
f 87/138/84 37/139/37 88/140/85 
f 89/141/86 90/142/87 57/143/57 56/137/56 
f 89/141/86 56/137/56 86/136/83 
f 91/144/87 92/145/88 88/140/85 37/139/37 
f 91/144/87 37/139/37 54/146/54 
f 58/147/58 57/143/57 90/142/87 93/148/89 
f 54/146/54 53/149/53 94/150/89 91/144/87 
f 93/148/89 95/151/90 96/152/91 59/153/59 
f 93/148/89 59/153/59 58/147/58 
f 97/154/92 94/150/89 53/149/53 52/155/52 
f 97/154/92 52/155/52 98/156/93 
f 99/157/94 100/158/95 60/159/60 59/153/59 
f 99/157/94 59/153/59 96/152/91 
f 101/160/95 102/161/96 98/156/93 52/155/52 
f 101/160/95 52/155/52 51/162/51 
f 61/163/61 60/159/60 100/158/95 103/164/97 
f 51/162/51 50/165/50 104/166/97 101/160/95 
f 103/164/97 105/167/98 106/168/99 62/169/62 
f 103/164/97 62/169/62 61/163/61 
f 107/170/100 104/166/97 50/165/50 49/171/49 
f 107/170/100 49/171/49 108/172/101 
f 109/173/102 110/174/103 63/175/63 62/169/62 
f 109/173/102 62/169/62 106/168/99 
f 111/176/103 112/177/104 108/172/101 49/171/49 
f 111/176/103 49/171/49 48/178/48 
f 64/179/64 63/175/63 110/174/103 113/180/105 
f 48/178/48 47/181/47 114/182/105 111/176/103 
f 113/180/105 115/183/106 116/184/107 65/185/65 
f 113/180/105 65/185/65 64/179/64 
f 117/186/108 114/182/105 47/181/47 46/187/46 
f 117/186/108 46/187/46 118/188/109 
f 119/189/110 120/190/111 66/191/66 65/185/65 
f 119/189/110 65/185/65 116/184/107 
f 121/192/111 122/193/112 118/188/109 46/187/46 
f 121/192/111 46/187/46 45/194/45 
f 67/195/67 66/191/66 120/190/111 123/196/113 
f 45/194/45 44/197/44 124/198/113 121/192/111 
f 123/196/113 125/199/114 126/200/115 68/201/68 
f 123/196/113 68/201/68 67/195/67 
f 127/202/116 124/198/113 44/197/44 43/203/43 
f 127/202/116 43/203/43 128/204/117 
f 129/205/118 130/206/119 69/207/69 68/201/68 
f 129/205/118 68/201/68 126/200/115 
f 131/208/119 132/209/120 128/204/117 43/203/43 
f 131/208/119 43/203/43 42/210/42 
f 70/115/70 69/207/69 130/206/119 73/111/73 
f 42/210/42 41/118/41 77/117/73 131/208/119 
f 93/148/89 90/142/87 91/144/87 94/150/89 
f 103/164/97 100/158/95 101/160/95 104/166/97 
f 113/180/105 110/174/103 111/176/103 114/182/105 
f 123/196/113 120/190/111 121/192/111 124/198/113 
f 73/111/73 130/206/119 131/208/119 77/117/73 
f 83/132/81 80/122/79 81/126/79 84/134/81 
f 126/200/115 125/199/114 129/205/118 
f 75/125/75 74/211/74 79/121/78 
f 78/128/77 82/127/80 76/212/76 
f 128/204/117 132/209/120 127/202/116 
f 88/140/85 92/145/88 87/138/84 
f 86/136/83 85/135/82 89/141/86 
f 98/156/93 102/161/96 97/154/92 
f 96/152/91 95/151/90 99/157/94 
f 108/172/101 112/177/104 107/170/100 
f 106/168/99 105/167/98 109/173/102 
f 118/188/109 122/193/112 117/186/108 
f 116/184/107 115/183/106 119/189/110 
f 133/213/121 134/214/122 89/215/86 85/216/82 
f 135/217/123 136/218/124 99/219/94 95/220/90 
f 137/221/125 138/222/126 109/223/102 105/224/98 
f 139/225/127 140/226/128 119/227/110 115/228/106 
f 141/229/129 142/230/130 129/231/118 125/232/114 
f 143/233/131 144/234/132 79/235/78 74/236/74 
f 145/237/133 146/238/134 87/239/84 92/240/88 
f 147/241/135 148/242/136 76/243/76 82/244/80 
f 149/245/137 150/246/138 127/247/116 132/248/120 
f 151/249/139 152/250/140 117/251/108 122/252/112 
f 153/253/141 154/254/142 107/255/100 112/256/104 
f 155/257/143 156/258/144 97/259/92 102/260/96 
f 90/142/87 89/141/86 92/145/88 91/144/87 
f 89/215/86 134/214/122 145/261/133 92/262/88 
f 135/217/123 95/220/90 97/259/92 156/258/144 
f 95/151/90 93/148/89 94/150/89 97/154/92 
f 100/158/95 99/157/94 102/161/96 101/160/95 
f 99/219/94 136/218/124 155/263/143 102/264/96 
f 105/167/98 103/164/97 104/166/97 107/170/100 
f 137/221/125 105/224/98 107/265/100 154/266/142 
f 110/174/103 109/173/102 112/177/104 111/176/103 
f 109/223/102 138/222/126 153/253/141 112/256/104 
f 139/225/127 115/228/106 117/251/108 152/250/140 
f 115/183/106 113/180/105 114/182/105 117/186/108 
f 120/190/111 119/189/110 122/193/112 121/192/111 
f 119/227/110 140/226/128 151/267/139 122/268/112 
f 141/229/129 125/232/114 127/247/116 150/246/138 
f 125/199/114 123/196/113 124/198/113 127/202/116 
f 130/206/119 129/205/118 132/209/120 131/208/119 
f 129/231/118 142/230/130 149/269/137 132/270/120 
f 74/112/74 73/111/73 77/117/73 76/116/76 
f 143/233/131 74/236/74 76/243/76 148/242/136 
f 80/122/79 79/121/78 82/127/80 81/126/79 
f 79/235/78 144/234/132 147/271/135 82/272/80 
f 85/135/82 83/132/81 84/134/81 87/138/84 
f 133/213/121 85/216/82 87/239/84 146/238/134 
# 132 polygons - 36 triangles

