# 3ds Max Wavefront OBJ Exporter v0.97b - (c)2007 guruware
# File Created: 20.01.2017 23:40:18

#
# object EarthBullet
#

v  50.3244 56.3095 27.9122
v  51.9852 56.3095 19.6596
v  50.1634 63.1084 19.6596
v  48.7251 62.2779 27.9122
v  45.1863 68.0855 19.6596
v  44.3559 66.6472 27.9122
v  38.3874 69.9072 19.6596
v  38.3874 68.2464 27.9122
v  31.5886 68.0855 19.6596
v  32.4190 66.6472 27.9122
v  26.6114 63.1084 19.6596
v  28.0497 62.2779 27.9122
v  24.7897 56.3095 19.6596
v  26.4505 56.3095 27.9122
v  26.6114 49.5106 19.6596
v  28.0497 50.3410 27.9122
v  31.5886 44.5335 19.6596
v  32.4190 45.9718 27.9122
v  38.3874 42.7117 19.6596
v  38.3874 44.3725 27.9122
v  45.1863 44.5335 19.6596
v  44.3559 45.9718 27.9122
v  50.1634 49.5106 19.6596
v  48.7251 50.3410 27.9122
v  51.9852 56.3095 -10.5623
v  50.1634 63.1084 -10.5623
v  45.1863 68.0855 -10.5623
v  38.3874 69.9072 -10.5623
v  31.5886 68.0855 -10.5623
v  26.6114 63.1084 -10.5623
v  24.7897 56.3095 -10.5623
v  26.6114 49.5106 -10.5623
v  31.5886 44.5335 -10.5623
v  38.3874 42.7117 -10.5623
v  45.1863 44.5335 -10.5623
v  50.1634 49.5106 -10.5623
v  50.1634 63.1084 -21.8938
v  51.9852 56.3095 -21.8938
v  38.3874 56.3095 -21.8938
v  50.1634 49.5106 -21.8938
v  45.1863 44.5335 -21.8938
v  38.3874 42.7117 -21.8938
v  31.5886 44.5335 -21.8938
v  26.6114 49.5106 -21.8938
v  24.7897 56.3095 -21.8938
v  26.6114 63.1084 -21.8938
v  31.5886 68.0855 -21.8938
v  38.3874 69.9072 -21.8938
v  45.1863 68.0855 -21.8938
v  50.2619 56.3095 -16.2281
v  48.6710 62.2467 -16.2281
v  44.3247 66.5931 -16.2281
v  38.3874 68.1840 -16.2281
v  32.4502 66.5931 -16.2281
v  28.1038 62.2467 -16.2281
v  26.5130 56.3095 -16.2281
v  28.1038 50.3722 -16.2281
v  32.4502 46.0259 -16.2281
v  38.3874 44.4350 -16.2281
v  44.3247 46.0259 -16.2281
v  48.6710 50.3722 -16.2281
v  38.3874 56.3095 27.9122
# 62 vertices

vn 0.9803 -0.0000 0.1973
vn 0.8490 0.4902 0.1973
vn 0.4902 0.8490 0.1973
vn -0.0000 0.9803 0.1973
vn -0.4902 0.8490 0.1973
vn -0.8490 0.4902 0.1973
vn -0.9803 0.0000 0.1973
vn -0.8490 -0.4902 0.1973
vn -0.4902 -0.8490 0.1973
vn -0.0000 -0.9803 0.1973
vn 0.4902 -0.8490 0.1973
vn 0.8490 -0.4902 0.1973
vn 1.0000 -0.0000 0.0000
vn 0.9896 -0.0000 -0.1437
vn 0.8570 0.4948 -0.1437
vn 0.8660 0.5000 0.0000
vn 0.4948 0.8570 -0.1437
vn 0.5000 0.8660 0.0000
vn -0.0000 0.9896 -0.1437
vn -0.0000 1.0000 0.0000
vn -0.4948 0.8570 -0.1437
vn -0.5000 0.8660 0.0000
vn -0.8570 0.4948 -0.1437
vn -0.8660 0.5000 0.0000
vn -0.9896 0.0000 -0.1437
vn -1.0000 0.0000 -0.0000
vn -0.8570 -0.4948 -0.1437
vn -0.8660 -0.5000 -0.0000
vn -0.4948 -0.8570 -0.1437
vn -0.5000 -0.8660 -0.0000
vn -0.0000 -0.9896 -0.1437
vn -0.0000 -1.0000 -0.0000
vn 0.4948 -0.8570 -0.1437
vn 0.5000 -0.8660 -0.0000
vn 0.8570 -0.4948 -0.1437
vn 0.8660 -0.5000 -0.0000
vn 0.0000 0.0000 -1.0000
vn 1.0000 -0.0000 -0.0000
vn -1.0000 0.0000 0.0000
vn 0.9567 -0.0000 0.2910
vn 0.8285 0.4784 0.2910
vn 0.4784 0.8285 0.2910
vn -0.0000 0.9567 0.2910
vn -0.4784 0.8285 0.2910
vn -0.8285 0.4784 0.2910
vn -0.9567 0.0000 0.2910
vn -0.8285 -0.4784 0.2910
vn -0.4784 -0.8285 0.2910
vn -0.0000 -0.9567 0.2910
vn 0.4784 -0.8285 0.2910
vn 0.8285 -0.4784 0.2910
vn -0.0000 -0.0000 1.0000
vn 0.0000 -0.0000 1.0000
vn 0.0000 0.0000 1.0000
vn -0.0000 0.0000 1.0000
# 55 vertex normals

vt 0.3822 0.7503 0.0000
vt 0.4959 0.7545 0.0000
vt 0.4649 0.8703 0.0000
vt 0.3685 0.8098 0.0000
vt 0.3801 0.9551 0.0000
vt 0.3269 0.8545 0.0000
vt 0.2642 0.9862 0.0000
vt 0.2685 0.8724 0.0000
vt 0.1484 0.9551 0.0000
vt 0.2089 0.8588 0.0000
vt 0.0636 0.8703 0.0000
vt 0.1642 0.8171 0.0000
vt 0.0326 0.7545 0.0000
vt 0.1463 0.7587 0.0000
vt 0.0636 0.6387 0.0000
vt 0.1600 0.6992 0.0000
vt 0.1484 0.5539 0.0000
vt 0.2016 0.6545 0.0000
vt 0.2642 0.5229 0.0000
vt 0.2600 0.6366 0.0000
vt 0.3801 0.5539 0.0000
vt 0.3196 0.6503 0.0000
vt 0.4649 0.6387 0.0000
vt 0.3643 0.6919 0.0000
vt 0.0124 0.5076 0.0000
vt 0.0204 0.1629 0.0000
vt 0.1013 0.1660 0.0000
vt 0.0927 0.5094 0.0000
vt 0.1812 0.1669 0.0000
vt 0.1745 0.5110 0.0000
vt 0.2612 0.1674 0.0000
vt 0.2564 0.5122 0.0000
vt 0.3415 0.1677 0.0000
vt 0.3382 0.5129 0.0000
vt 0.4221 0.1679 0.0000
vt 0.4201 0.5133 0.0000
vt 0.5028 0.1679 0.0000
vt 0.5020 0.5135 0.0000
vt 0.5835 0.1677 0.0000
vt 0.5839 0.5133 0.0000
vt 0.6643 0.1674 0.0000
vt 0.6658 0.5128 0.0000
vt 0.7450 0.1670 0.0000
vt 0.7477 0.5120 0.0000
vt 0.8255 0.1665 0.0000
vt 0.8295 0.5109 0.0000
vt 0.9053 0.1656 0.0000
vt 0.9112 0.5094 0.0000
vt 0.9845 0.1633 0.0000
vt 0.9929 0.5076 0.0000
vt 0.5459 0.8734 0.0000
vt 0.5148 0.7574 0.0000
vt 0.7469 0.7574 0.0000
vt 0.5459 0.6414 0.0000
vt 0.6309 0.5564 0.0000
vt 0.7469 0.5253 0.0000
vt 0.8629 0.5564 0.0000
vt 0.9479 0.6414 0.0000
vt 0.9789 0.7574 0.0000
vt 0.9479 0.8734 0.0000
vt 0.8629 0.9584 0.0000
vt 0.7469 0.9895 0.0000
vt 0.6309 0.9584 0.0000
vt 0.0287 0.0936 0.0000
vt 0.1025 0.0942 0.0000
vt 0.1809 0.0947 0.0000
vt 0.2606 0.0949 0.0000
vt 0.3408 0.0950 0.0000
vt 0.4213 0.0950 0.0000
vt 0.5018 0.0949 0.0000
vt 0.5825 0.0947 0.0000
vt 0.6632 0.0944 0.0000
vt 0.7439 0.0942 0.0000
vt 0.8244 0.0943 0.0000
vt 0.9039 0.0955 0.0000
vt 0.9787 0.0977 0.0000
vt 0.0217 0.0289 0.0000
vt 0.0995 0.0247 0.0000
vt 0.1790 0.0232 0.0000
vt 0.2591 0.0227 0.0000
vt 0.3394 0.0225 0.0000
vt 0.4199 0.0224 0.0000
vt 0.5004 0.0222 0.0000
vt 0.5809 0.0219 0.0000
vt 0.6616 0.0214 0.0000
vt 0.7425 0.0211 0.0000
vt 0.8238 0.0210 0.0000
vt 0.9057 0.0221 0.0000
vt 0.9890 0.0281 0.0000
vt 0.2642 0.7545 0.0000
# 90 texture coords

g EarthBullet
s 4
f 1/1/1 2/2/1 3/3/2 4/4/2 
f 4/4/2 3/3/2 5/5/3 6/6/3 
f 6/6/3 5/5/3 7/7/4 8/8/4 
f 8/8/4 7/7/4 9/9/5 10/10/5 
f 10/10/5 9/9/5 11/11/6 12/12/6 
f 12/12/6 11/11/6 13/13/7 14/14/7 
f 14/14/7 13/13/7 15/15/8 16/16/8 
f 16/16/8 15/15/8 17/17/9 18/18/9 
f 18/18/9 17/17/9 19/19/10 20/20/10 
f 20/20/10 19/19/10 21/21/11 22/22/11 
f 22/22/11 21/21/11 23/23/12 24/24/12 
f 24/24/12 23/23/12 2/2/1 1/1/1 
s 8
f 2/25/13 25/26/14 26/27/15 3/28/16 
f 3/28/16 26/27/15 27/29/17 5/30/18 
f 5/30/18 27/29/17 28/31/19 7/32/20 
f 7/32/20 28/31/19 29/33/21 9/34/22 
f 9/34/22 29/33/21 30/35/23 11/36/24 
f 11/36/24 30/35/23 31/37/25 13/38/26 
f 13/38/26 31/37/25 32/39/27 15/40/28 
f 15/40/28 32/39/27 33/41/29 17/42/30 
f 17/42/30 33/41/29 34/43/31 19/44/32 
f 19/44/32 34/43/31 35/45/33 21/46/34 
f 21/46/34 35/45/33 36/47/35 23/48/36 
f 23/48/36 36/47/35 25/49/14 2/50/13 
s off
f 37/51/37 38/52/37 39/53/37 
f 38/52/37 40/54/37 39/53/37 
f 40/54/37 41/55/37 39/53/37 
f 41/55/37 42/56/37 39/53/37 
f 42/56/37 43/57/37 39/53/37 
f 43/57/37 44/58/37 39/53/37 
f 44/58/37 45/59/37 39/53/37 
f 45/59/37 46/60/37 39/53/37 
f 46/60/37 47/61/37 39/53/37 
f 47/61/37 48/62/37 39/53/37 
f 48/62/37 49/63/37 39/53/37 
f 49/63/37 37/51/37 39/53/37 
s 8
f 25/26/14 50/64/38 51/65/16 26/27/15 
f 26/27/15 51/65/16 52/66/18 27/29/17 
f 27/29/17 52/66/18 53/67/20 28/31/19 
f 28/31/19 53/67/20 54/68/22 29/33/21 
f 29/33/21 54/68/22 55/69/24 30/35/23 
f 30/35/23 55/69/24 56/70/39 31/37/25 
f 31/37/25 56/70/39 57/71/28 32/39/27 
f 32/39/27 57/71/28 58/72/30 33/41/29 
f 33/41/29 58/72/30 59/73/32 34/43/31 
f 34/43/31 59/73/32 60/74/34 35/45/33 
f 35/45/33 60/74/34 61/75/36 36/47/35 
f 36/47/35 61/75/36 50/76/38 25/49/14 
f 50/64/38 38/77/40 37/78/41 51/65/16 
f 51/65/16 37/78/41 49/79/42 52/66/18 
f 52/66/18 49/79/42 48/80/43 53/67/20 
f 53/67/20 48/80/43 47/81/44 54/68/22 
f 54/68/22 47/81/44 46/82/45 55/69/24 
f 55/69/24 46/82/45 45/83/46 56/70/39 
f 56/70/39 45/83/46 44/84/47 57/71/28 
f 57/71/28 44/84/47 43/85/48 58/72/30 
f 58/72/30 43/85/48 42/86/49 59/73/32 
f 59/73/32 42/86/49 41/87/50 60/74/34 
f 60/74/34 41/87/50 40/88/51 61/75/36 
f 61/75/36 40/88/51 38/89/40 50/76/38 
s off
f 1/1/52 4/4/52 62/90/52 
f 4/4/52 6/6/52 62/90/52 
f 6/6/52 8/8/52 62/90/52 
f 8/8/53 10/10/53 62/90/53 
f 10/10/53 12/12/53 62/90/53 
f 12/12/53 14/14/53 62/90/53 
f 14/14/54 16/16/54 62/90/54 
f 16/16/54 18/18/54 62/90/54 
f 18/18/54 20/20/54 62/90/54 
f 20/20/55 22/22/55 62/90/55 
f 22/22/55 24/24/55 62/90/55 
f 24/24/55 1/1/55 62/90/55 
# 48 polygons - 24 triangles

